<svg xmlns="http://www.w3.org/2000/svg" xmlns:xlink="http://www.w3.org/1999/xlink" viewBox="0 0 93.71 90.17"><defs><style>.cls-1{fill-rule:evenodd;fill:url(#linear-gradient);}</style><linearGradient id="linear-gradient" x1="49.79" y1="35.62" x2="86" y2="95.05" gradientUnits="userSpaceOnUse"><stop offset="0" stop-color="#09e82e"/><stop offset="1" stop-color="#fff"/></linearGradient></defs><g id="Layer_2" data-name="Layer 2"><g id="Layer_1-2" data-name="Layer 1"><path class="cls-1" d="M82.86,11.51l-.33-.08-.78-.17c-.21,0-.43-.07-.64-.09l-.62-.08A11.66,11.66,0,0,0,79.31,11h-.16c-.47,0-.94,0-1.39.07l-.21,0a11.58,11.58,0,0,0-1.18.18l-.26,0q-.51.12-1,.27l-.38.11-.22.07-.23.08a14.44,14.44,0,0,0-1.68-4.63A14.56,14.56,0,0,0,52.75,1.93L1.94,31.26c-3.82,2.21-1.1,10.12.57,12.92l.32.56a16.11,16.11,0,0,0,3.3,4,17.78,17.78,0,0,0,20.14,2.1l19-11,19.37-11.2h0v44.3c0,8.8,7.48,17.14,16.92,17.25h.65c3.28,0,11.46-1.59,11.49-6V25.55A14.59,14.59,0,0,0,82.86,11.51Zm-25.21-1A4.75,4.75,0,0,1,64,12.18c.83,1.45.61,3.36.61,5l-43.32,25a7.8,7.8,0,0,1-9.53-1.87l-.09-.11a6.61,6.61,0,0,1-.37-.55L11,39.15a7.84,7.84,0,0,1-.62-1.38ZM81.71,80.32a7.75,7.75,0,0,1-7.19-7.4v-50c.6-.37,1.21-.77,1.8-1.1h0c.28-.15.55-.29.81-.4l.15-.07.1,0a4.55,4.55,0,0,1,1.78-.38,4.7,4.7,0,0,1,4.65,4.66V80.13c-.59.11-1.15.16-1.48.19Z"/></g></g></svg>