<svg xmlns="http://www.w3.org/2000/svg" viewBox="0 0 91.04 91.04"><defs><style>.cls-1{fill:#0134c2;}.cls-2{fill:#fff;}</style></defs><g id="Layer_2" data-name="Layer 2"><g id="Layer_1-2" data-name="Layer 1"><circle class="cls-1" cx="45.52" cy="45.52" r="45.52"/><path class="cls-2" d="M37.48,61.47v-35A10.36,10.36,0,0,1,37.53,25a2,2,0,0,1,4,.13c0,.34,0,.69,0,1q0,20,0,39.92c0,1.12,0,2.19-1.25,2.72s-2-.22-2.83-1l-7.31-7.32c-1.2-1.21-1.32-2.44-.37-3.35s2.15-.72,3.35.47c1.35,1.35,2.69,2.72,4,4.08Z"/><path class="cls-2" d="M54,30.74v35A10.27,10.27,0,0,1,54,67.22a2,2,0,0,1-4-.12c0-.34,0-.69,0-1q0-19.95,0-39.91C50,25,50,24,51.21,23.44s2,.2,2.84,1c2.43,2.45,4.88,4.88,7.31,7.33,1.21,1.22,1.33,2.41.37,3.34s-2.15.74-3.35-.46c-1.34-1.36-2.66-2.75-4-4.13Z"/></g></g></svg>