<svg xmlns="http://www.w3.org/2000/svg" xmlns:xlink="http://www.w3.org/1999/xlink" viewBox="0 0 163.72 198.45"><defs><style>.cls-1,.cls-5{fill:#0134c2;}.cls-2{isolation:isolate;}.cls-3,.cls-5{mix-blend-mode:multiply;}.cls-4{clip-path:url(#clip-path);}.cls-6{fill:url(#radial-gradient);}.cls-44,.cls-45,.cls-7{fill:#fff;}.cls-8{fill:url(#linear-gradient);}.cls-9{fill:url(#radial-gradient-2);}.cls-10{fill:url(#linear-gradient-2);}.cls-11{fill:url(#linear-gradient-3);}.cls-12{fill:url(#linear-gradient-4);}.cls-13{fill:url(#linear-gradient-5);}.cls-14{fill:url(#linear-gradient-6);}.cls-15{fill:url(#linear-gradient-7);}.cls-16{fill:url(#linear-gradient-8);}.cls-17{fill:url(#linear-gradient-9);}.cls-18{fill:url(#linear-gradient-10);}.cls-19{fill:url(#linear-gradient-11);}.cls-20{fill:url(#linear-gradient-12);}.cls-21{fill:url(#linear-gradient-13);}.cls-22{fill:url(#linear-gradient-14);}.cls-23{fill:url(#linear-gradient-15);}.cls-24{fill:url(#linear-gradient-16);}.cls-25{fill:url(#linear-gradient-17);}.cls-26{fill:url(#linear-gradient-18);}.cls-27{fill:url(#linear-gradient-19);}.cls-28{fill:url(#linear-gradient-20);}.cls-29{fill:url(#linear-gradient-21);}.cls-30{fill:url(#linear-gradient-22);}.cls-31{fill:url(#linear-gradient-23);}.cls-32{fill:url(#linear-gradient-24);}.cls-33{fill:url(#linear-gradient-25);}.cls-34{fill:url(#linear-gradient-26);}.cls-35{fill:url(#linear-gradient-27);}.cls-36{fill:url(#linear-gradient-28);}.cls-37{fill:url(#linear-gradient-29);}.cls-38{fill:url(#linear-gradient-30);}.cls-39{fill:url(#linear-gradient-31);}.cls-40{fill:url(#linear-gradient-32);}.cls-41{fill:url(#linear-gradient-33);}.cls-42{fill:url(#linear-gradient-34);}.cls-43{fill:url(#linear-gradient-35);}.cls-44{font-size:15.04px;}.cls-44,.cls-45{stroke:#fff;stroke-linecap:round;stroke-linejoin:round;stroke-width:1.88px;font-family:Poppins-ExtraLight, Poppins;font-weight:200;}.cls-45{font-size:15.04px;}</style><clipPath id="clip-path"><polygon class="cls-1" points="116.02 146.46 47.7 146.46 47.7 198.45 81.86 188.22 116.02 198.45 116.02 146.46"/></clipPath><radialGradient id="radial-gradient" cx="82.57" cy="88.29" r="47.48" gradientTransform="translate(75.12 -32.36) rotate(39.55)" gradientUnits="userSpaceOnUse"><stop offset="0.61" stop-color="#fff"/><stop offset="0.97" stop-color="#d7d5e2"/><stop offset="1" stop-color="#d4d1e0"/></radialGradient><linearGradient id="linear-gradient" x1="68.2" y1="166.79" x2="99.37" y2="113.78" gradientTransform="translate(-3.68 -47.74) rotate(-0.46)" gradientUnits="userSpaceOnUse"><stop offset="0" stop-color="#fd960b"/><stop offset="1" stop-color="#fddd3b"/></linearGradient><radialGradient id="radial-gradient-2" cx="108.43" cy="151.71" r="52.28" gradientTransform="matrix(1, -0.01, 0.01, 0.66, -3.27, 3.6)" gradientUnits="userSpaceOnUse"><stop offset="0" stop-color="#fff"/><stop offset="1" stop-color="#fff" stop-opacity="0"/></radialGradient><linearGradient id="linear-gradient-2" x1="-11676.82" y1="2203.92" x2="-11727.02" y2="2042.42" gradientTransform="matrix(-0.95, 0.33, 0.33, 0.95, -11742.57, 1891.37)" xlink:href="#linear-gradient"/><linearGradient id="linear-gradient-3" x1="-11189.72" y1="-2377.89" x2="-11168.23" y2="-2420.22" gradientTransform="matrix(-0.91, -0.42, -0.42, 0.91, -11116.74, -2521.49)" xlink:href="#linear-gradient"/><linearGradient id="linear-gradient-4" x1="26.17" y1="2176.36" x2="67.67" y2="2032.14" gradientTransform="matrix(1.02, -0.35, 0.33, 0.95, -718.03, -1917.89)" xlink:href="#linear-gradient"/><linearGradient id="linear-gradient-5" x1="-11500.54" y1="-1765.51" x2="-11485.88" y2="-1804.2" gradientTransform="matrix(-0.95, -0.32, -0.32, 0.95, -11422.77, -1990.71)" xlink:href="#linear-gradient"/><linearGradient id="linear-gradient-6" x1="-11835.89" y1="1734.82" x2="-11875.7" y2="1560.18" gradientTransform="matrix(-0.97, 0.25, 0.25, 0.97, -11870.26, 1418.72)" xlink:href="#linear-gradient"/><linearGradient id="linear-gradient-7" x1="521.33" y1="1707.47" x2="544.54" y2="1604.37" gradientTransform="matrix(0.98, -0.26, 0.25, 0.97, -917.74, -1443.06)" xlink:href="#linear-gradient"/><linearGradient id="linear-gradient-8" x1="479.3" y1="1213.75" x2="490.16" y2="1124.09" gradientTransform="matrix(0.99, -0.15, 0.15, 0.99, -625.24, -1063.79)" xlink:href="#linear-gradient"/><linearGradient id="linear-gradient-9" x1="-11361.28" y1="-591.76" x2="-11342.86" y2="-678.8" gradientTransform="matrix(-1.06, -0.17, -0.19, 1.14, -12078.91, -1097.02)" xlink:href="#linear-gradient"/><linearGradient id="linear-gradient-10" x1="-12077.61" y1="56.97" x2="-12070.75" y2="-31.07" gradientTransform="matrix(-1, -0.05, -0.05, 1, -12040.3, -438.25)" xlink:href="#linear-gradient"/><linearGradient id="linear-gradient-11" x1="828.42" y1="75.69" x2="816.12" y2="-82.21" gradientTransform="translate(-796.75 81.12) rotate(2.65)" xlink:href="#linear-gradient"/><linearGradient id="linear-gradient-12" x1="-12055.17" y1="569.39" x2="-12056.44" y2="440.77" gradientTransform="matrix(-1, 0.04, 0.04, 1, -12051.28, 101.92)" xlink:href="#linear-gradient"/><linearGradient id="linear-gradient-13" x1="805.79" y1="557.51" x2="807.27" y2="407.82" gradientTransform="translate(-805.93 -361.18) rotate(-2.36)" xlink:href="#linear-gradient"/><linearGradient id="linear-gradient-14" x1="-11965.19" y1="-696.62" x2="-11928.72" y2="-869.24" gradientTransform="matrix(-0.98, -0.18, -0.18, 0.98, -11884.83, -1277.64)" xlink:href="#linear-gradient"/><linearGradient id="linear-gradient-15" x1="-11191.98" y1="-2364.19" x2="-11181.96" y2="-2383.94" gradientTransform="matrix(-0.91, -0.42, -0.42, 0.91, -11116.74, -2521.49)" xlink:href="#linear-gradient"/><linearGradient id="linear-gradient-16" x1="-11544.64" y1="-2210.48" x2="-11463.26" y2="-2364.15" gradientTransform="matrix(-0.9, -0.44, -0.44, 0.9, -11324.39, -2921.81)" xlink:href="#linear-gradient"/><linearGradient id="linear-gradient-17" x1="486.92" y1="-1739.98" x2="436.94" y2="-1861.01" gradientTransform="translate(-1049 1592.73) rotate(20.64)" xlink:href="#linear-gradient"/><linearGradient id="linear-gradient-18" x1="669.83" y1="-1221.59" x2="626.69" y2="-1363.77" gradientTransform="translate(-932.51 1160.34) rotate(15.08)" xlink:href="#linear-gradient"/><linearGradient id="linear-gradient-19" x1="-246.72" y1="-1745.58" x2="-296.92" y2="-1907.08" gradientTransform="translate(-187.35 1891.37) rotate(19.06)" xlink:href="#linear-gradient"/><linearGradient id="linear-gradient-20" x1="-239.43" y1="2754.42" x2="-217.94" y2="2712.08" gradientTransform="matrix(0.91, -0.42, 0.42, 0.91, -813.19, -2521.49)" xlink:href="#linear-gradient"/><linearGradient id="linear-gradient-21" x1="-10555.32" y1="-1773.23" x2="-10513.82" y2="-1917.44" gradientTransform="matrix(-1.02, -0.35, -0.33, 0.95, -11211.89, -1917.89)" xlink:href="#linear-gradient"/><linearGradient id="linear-gradient-22" x1="-62.75" y1="2162.37" x2="-48.09" y2="2123.69" gradientTransform="matrix(0.95, -0.32, 0.32, 0.95, -507.15, -1990.71)" xlink:href="#linear-gradient"/><linearGradient id="linear-gradient-23" x1="-134.28" y1="-1321.51" x2="-174.1" y2="-1496.14" gradientTransform="matrix(0.97, 0.25, -0.25, 0.97, -59.66, 1418.72)" xlink:href="#linear-gradient"/><linearGradient id="linear-gradient-24" x1="-11033.12" y1="-1349.83" x2="-11009.91" y2="-1452.94" gradientTransform="matrix(-0.98, -0.26, -0.25, 0.97, -11012.19, -1443.06)" xlink:href="#linear-gradient"/><linearGradient id="linear-gradient-25" x1="-11474.61" y1="-617.13" x2="-11463.75" y2="-706.79" gradientTransform="matrix(-0.99, -0.15, -0.15, 0.99, -11304.68, -1063.79)" xlink:href="#linear-gradient"/><linearGradient id="linear-gradient-26" x1="-205.29" y1="1086.95" x2="-186.87" y2="999.91" gradientTransform="matrix(1.06, -0.17, 0.19, 1.14, 148.99, -1097.02)" xlink:href="#linear-gradient"/><linearGradient id="linear-gradient-27" x1="3.39" y1="616.93" x2="10.25" y2="528.9" gradientTransform="translate(110.38 -438.25) rotate(-2.65)" xlink:href="#linear-gradient"/><linearGradient id="linear-gradient-28" x1="-11252.58" y1="635.65" x2="-11264.88" y2="477.75" gradientTransform="matrix(-1, 0.05, 0.05, 1, -11133.17, 81.12)" xlink:href="#linear-gradient"/><linearGradient id="linear-gradient-29" x1="28.82" y1="71.08" x2="27.54" y2="-57.54" gradientTransform="translate(121.36 101.92) rotate(2.36)" xlink:href="#linear-gradient"/><linearGradient id="linear-gradient-30" x1="-11278.19" y1="59.21" x2="-11276.71" y2="-90.49" gradientTransform="matrix(-1, -0.04, -0.04, 1, -11123.99, -361.18)" xlink:href="#linear-gradient"/><linearGradient id="linear-gradient-31" x1="-60.02" y1="1430.68" x2="-23.55" y2="1258.06" gradientTransform="translate(-45.1 -1277.64) rotate(-10.13)" xlink:href="#linear-gradient"/><linearGradient id="linear-gradient-32" x1="-241.69" y1="2768.11" x2="-231.67" y2="2748.37" gradientTransform="matrix(0.91, -0.42, 0.42, 0.91, -813.19, -2521.49)" xlink:href="#linear-gradient"/><linearGradient id="linear-gradient-33" x1="-684.81" y1="3112.39" x2="-603.43" y2="2958.73" gradientTransform="translate(-605.53 -2921.81) rotate(-26.11)" xlink:href="#linear-gradient"/><linearGradient id="linear-gradient-34" x1="-10830.55" y1="2523.12" x2="-10880.53" y2="2402.09" gradientTransform="matrix(-0.94, 0.35, 0.35, 0.94, -10880.92, 1592.73)" xlink:href="#linear-gradient"/><linearGradient id="linear-gradient-35" x1="-11007.81" y1="1925.51" x2="-11050.95" y2="1783.33" gradientTransform="matrix(-0.97, 0.26, 0.26, 0.97, -10997.41, 1160.34)" xlink:href="#linear-gradient"/></defs><g class="cls-2"><g id="Layer_2" data-name="Layer 2"><g id="Layer_1-2" data-name="Layer 1"><g class="cls-3"><polygon class="cls-1" points="116.02 146.46 47.7 146.46 47.7 198.45 81.86 188.22 116.02 198.45 116.02 146.46"/><g class="cls-4"><rect class="cls-1" x="47.7" y="146.46" width="68.32" height="51.98"/><rect class="cls-1" x="55.84" y="146.46" width="6.14" height="51.98"/><rect class="cls-1" x="101.94" y="146.46" width="6.14" height="51.98"/><rect class="cls-5" x="47.7" y="146.46" width="68.32" height="51.98"/></g></g><path class="cls-1" d="M161.6,106.79A81.86,81.86,0,1,1,103.38,9.3,81.86,81.86,0,0,1,161.6,106.79Z"/><circle class="cls-6" cx="82.57" cy="88.29" r="46.1" transform="translate(-37.31 72.79) rotate(-39.55)"/><path class="cls-7" d="M82.57,44.27a44,44,0,0,1,.15,88h-.16a44,44,0,0,1-.15-88h.16m0-5.67h-.18A49.69,49.69,0,0,0,82.56,138h.18a49.69,49.69,0,0,0-.17-99.37Z"/><path class="cls-8" d="M87.26,61l5.38,11.68a5.07,5.07,0,0,0,4.11,2.94l12.78,1.3a5.11,5.11,0,0,1,2.94,8.83L103,94.43a5.09,5.09,0,0,0-1.53,4.82l2.72,12.58a5.1,5.1,0,0,1-7.48,5.53l-11.21-6.29a5.08,5.08,0,0,0-5.05,0l-11.11,6.47a5.1,5.1,0,0,1-7.56-5.41l2.51-12.62a5.13,5.13,0,0,0-1.6-4.8l-9.58-8.57A5.11,5.11,0,0,1,56,77.3l12.76-1.5a5.13,5.13,0,0,0,4.07-3L78,61A5.1,5.1,0,0,1,87.26,61Z"/><path class="cls-9" d="M58.15,90.66c2.07.55,4.15,1,6.25,1.41a56.5,56.5,0,0,0,26.11-1.18,68.82,68.82,0,0,0,21-11L113,78.72a5,5,0,0,0-3.43-1.85l-12.78-1.3a5.07,5.07,0,0,1-4.11-2.94L87.26,61A5.1,5.1,0,0,0,78,61L72.78,72.79a5.13,5.13,0,0,1-4.07,3L56,77.3a5.11,5.11,0,0,0-2.8,8.88Z"/><path class="cls-10" d="M16.51,103.74s-1.72-6.48-3.5-9.1S8.21,90.46,7.86,88c0,0-.48,5.5,1.24,9.31a9.68,9.68,0,0,0,4.8,4.35A10.85,10.85,0,0,1,16.51,103.74Z"/><path class="cls-11" d="M21.56,60.74s2.67-4.3,3.19-6.83,1-6.46,1.94-7.79c0,0-3.84,2.79-5,5.77a11.94,11.94,0,0,0-.16,5.77A13.69,13.69,0,0,1,21.56,60.74Z"/><path class="cls-12" d="M17.05,103.44S14.76,96.9,16,94.5s4.26-4.35,4.83-5.65c0,0,.72,4.46.12,7.05-.36,1.55-1.92,3.24-2.91,4.49A6.82,6.82,0,0,0,17.05,103.44Z"/><path class="cls-13" d="M22.4,60.56s1.61-4.47,4-5.1c1.77-.45,4.86-.92,5.82-1.3,0,0-1.48,3.76-4.19,5-.88.41-1.87.2-3,.45A11.38,11.38,0,0,0,22.4,60.56Z"/><path class="cls-14" d="M18.65,70.65s2-5.71,1.61-8.91-2.5-5.9-1.83-8c0,0-2.62,4.2-2.77,8.33a9.65,9.65,0,0,0,1.56,5.68A26.73,26.73,0,0,1,18.65,70.65Z"/><path class="cls-15" d="M19.6,71.12s.87-6.8,2.71-8.05,5.61-1.54,6.58-2.3a27.29,27.29,0,0,1-2.93,6c-.89,1.12-3.27,2-4.48,2.39C20.49,69.54,19.6,71.12,19.6,71.12Z"/><path class="cls-16" d="M26.33,53.89c2.28-1.57,5.06-1.72,6.39-4.12a26.23,26.23,0,0,1,4.63-6.2,10.65,10.65,0,0,0-7.21,2.7C28.1,48.18,26.33,53.89,26.33,53.89Z"/><path class="cls-17" d="M35.52,132.18c.16.27.09.47-.15.49-.43,0-1.3-2-2-2.83C32,128.27,31,128.12,30,128.31a5.31,5.31,0,0,0-2.47,1.14,4.15,4.15,0,0,1-3.76,1c-4-1.16-4.85-5.46-4.85-5.46s1,.83,3.41.41a12.5,12.5,0,0,1,5.2-.26C31.15,125.93,33.84,129.54,35.52,132.18Z"/><path class="cls-18" d="M26.58,122.18s-3.94-4.57-6.39-5.41-6.41-.56-7.74-2.19c0,0,1,5.53,5.77,7.59a7.93,7.93,0,0,0,5.46,0A6.5,6.5,0,0,1,26.58,122.18Z"/><path class="cls-19" d="M26.88,121.54s-4.39-4.22-4.42-7.05,1.58-6.41,1.5-7.85a20,20,0,0,1,2.9,5.9c.32,1.57-.23,4-.49,5.72A8,8,0,0,0,26.88,121.54Z"/><path class="cls-20" d="M19.78,113.54s-2.46-5.94-4.55-8S9.79,104,9.05,101.7c0,0,.24,5.28,2.42,8.46,1.31,1.91,4,1.77,5.54,2A8.18,8.18,0,0,1,19.78,113.54Z"/><path class="cls-21" d="M20.25,113.1s-2.93-5.09-2.2-7.7,3.49-5.13,3.8-6.52a10.37,10.37,0,0,1,.76,4.75c-.13,1.58-1.36,3.82-2.19,6.18A8.48,8.48,0,0,0,20.25,113.1Z"/><path class="cls-22" d="M15.51,81.79s1.92-5.55,1.23-8.74c-.64-3-3.89-5.52-3.08-7.9a10.86,10.86,0,0,0-2.31,7.4c.28,3.12,1.89,4.58,2.86,6A12.38,12.38,0,0,1,15.51,81.79Z"/><path class="cls-23" d="M16.11,81.81s1-7,3.08-8.53,4.84-1.77,5.92-2.63c0,0-1.12,4.7-2.79,6.69-1,1.19-2.61,1.68-4,2.27A6.18,6.18,0,0,0,16.11,81.81Z"/><path class="cls-24" d="M14.64,92.42s.3-5.75-.61-8.66-4.11-5.26-3.75-7.67c0,0-2.11,4.86-1.62,8.84.29,2.39,2.68,3.66,3.88,4.7A13.62,13.62,0,0,1,14.64,92.42Z"/><path class="cls-25" d="M15.23,92.87s-.83-6,.77-8.13,5-3.32,5.8-4.48a10.88,10.88,0,0,1-1,4.76c-.68,1.42-2.6,3-4.2,4.84A8.51,8.51,0,0,0,15.23,92.87Z"/><path class="cls-26" d="M33.85,128.89s-.65-.63-1.91-2-3.09-3.43-3.36-4.67c-.54-2.48.15-6-.18-7.26A18.92,18.92,0,0,1,32,119.81c.58,1.36.57,3.6.66,5.14A17.69,17.69,0,0,0,33.85,128.89Z"/><path class="cls-27" d="M147.21,103.74s1.72-6.48,3.49-9.1,4.8-4.18,5.15-6.64c0,0,.49,5.5-1.23,9.31a9.68,9.68,0,0,1-4.8,4.35A10.63,10.63,0,0,0,147.21,103.74Z"/><path class="cls-28" d="M142.16,60.74s-2.67-4.3-3.19-6.83-1-6.46-1.95-7.79c0,0,3.84,2.79,5,5.77a12.07,12.07,0,0,1,.16,5.77A13.07,13.07,0,0,0,142.16,60.74Z"/><path class="cls-29" d="M146.67,103.44s2.29-6.54,1.08-8.94-4.26-4.35-4.84-5.65c0,0-.71,4.46-.12,7.05.36,1.55,1.92,3.24,2.92,4.49A6.82,6.82,0,0,1,146.67,103.44Z"/><path class="cls-30" d="M141.31,60.56s-1.61-4.47-4-5.1c-1.77-.45-4.86-.92-5.83-1.3,0,0,1.49,3.76,4.19,5,.89.41,1.87.2,3,.45A11.17,11.17,0,0,1,141.31,60.56Z"/><path class="cls-31" d="M145.07,70.65s-2-5.71-1.61-8.91,2.49-5.9,1.83-8c0,0,2.62,4.2,2.77,8.33a9.8,9.8,0,0,1-1.56,5.68A26.73,26.73,0,0,0,145.07,70.65Z"/><path class="cls-32" d="M144.12,71.12s-.87-6.8-2.71-8.05-5.61-1.54-6.59-2.3a27.49,27.49,0,0,0,2.94,6c.88,1.12,3.26,2,4.48,2.39C143.23,69.54,144.12,71.12,144.12,71.12Z"/><path class="cls-33" d="M137.38,53.89c-2.27-1.57-5-1.72-6.38-4.12a26.09,26.09,0,0,0-4.64-6.2,10.68,10.68,0,0,1,7.22,2.7C135.62,48.18,137.38,53.89,137.38,53.89Z"/><path class="cls-34" d="M128.2,132.18c-.17.27-.09.47.15.49.42,0,1.3-2,2-2.83,1.34-1.57,2.29-1.72,3.38-1.53a5.3,5.3,0,0,1,2.48,1.14,4.15,4.15,0,0,0,3.76,1c4-1.16,4.84-5.46,4.84-5.46s-1,.83-3.41.41a12.45,12.45,0,0,0-5.19-.26C132.56,125.93,129.87,129.54,128.2,132.18Z"/><path class="cls-35" d="M137.14,122.18s3.93-4.57,6.38-5.41,6.42-.56,7.74-2.19c0,0-1,5.53-5.76,7.59a8,8,0,0,1-5.47,0A6.46,6.46,0,0,0,137.14,122.18Z"/><path class="cls-36" d="M136.83,121.54s4.4-4.22,4.43-7.05-1.58-6.41-1.51-7.85a19.82,19.82,0,0,0-2.89,5.9c-.32,1.57.23,4,.49,5.72A7.91,7.91,0,0,1,136.83,121.54Z"/><path class="cls-37" d="M143.94,113.54s2.46-5.94,4.54-8,5.45-1.61,6.18-3.87c0,0-.23,5.28-2.42,8.46-1.3,1.91-4,1.77-5.53,2A8.18,8.18,0,0,0,143.94,113.54Z"/><path class="cls-38" d="M143.47,113.1s2.93-5.09,2.19-7.7-3.48-5.13-3.8-6.52a10.44,10.44,0,0,0-.75,4.75c.13,1.58,1.36,3.82,2.19,6.18A8.69,8.69,0,0,1,143.47,113.1Z"/><path class="cls-39" d="M148.21,81.79s-1.93-5.55-1.24-8.74c.65-3,3.89-5.52,3.09-7.9a10.86,10.86,0,0,1,2.31,7.4c-.29,3.12-1.89,4.58-2.86,6A12.38,12.38,0,0,0,148.21,81.79Z"/><path class="cls-40" d="M147.61,81.81s-1-7-3.09-8.53-4.84-1.77-5.92-2.63c0,0,1.13,4.7,2.8,6.69,1,1.19,2.61,1.68,4,2.27A6.15,6.15,0,0,1,147.61,81.81Z"/><path class="cls-41" d="M149.08,92.42s-.3-5.75.6-8.66,4.11-5.26,3.75-7.67c0,0,2.12,4.86,1.63,8.84-.29,2.39-2.68,3.66-3.88,4.7A13.23,13.23,0,0,0,149.08,92.42Z"/><path class="cls-42" d="M148.49,92.87s.82-6-.78-8.13-5-3.32-5.79-4.48a11,11,0,0,0,1,4.76c.69,1.42,2.61,3,4.21,4.84A8.51,8.51,0,0,1,148.49,92.87Z"/><path class="cls-43" d="M129.87,128.89s.64-.63,1.9-2,3.1-3.43,3.36-4.67c.54-2.48-.14-6,.19-7.26a18.68,18.68,0,0,0-3.57,4.81c-.59,1.36-.57,3.6-.66,5.14A18.25,18.25,0,0,1,129.87,128.89Z"/><text class="cls-44" transform="translate(40.77 153.34) rotate(35.01)">LEVEL UP</text><text class="cls-45" transform="matrix(0.86, -0.51, 0.51, 0.86, 47.83, 47.84)">LEVEL UP</text></g></g></g></svg>