<svg xmlns="http://www.w3.org/2000/svg" viewBox="0 0 66.14 66.29"><defs><style>.cls-1{fill:#0134c2;}</style></defs><g id="Layer_2" data-name="Layer 2"><g id="Layer_1-2" data-name="Layer 1"><path class="cls-1" d="M35.15,0c1.21.17,2.43.31,3.63.51a32.85,32.85,0,0,1,26.7,26.14c2.23,12-1.21,22.23-9.88,30.74-.48.47-1,.9-1.48,1.35,0,0,0,0,0,.12l4.73.57L58.4,63.3l-12-1.42c.48-4.06,1-8.07,1.46-12.16l3.86.46-.71,6a29.16,29.16,0,0,0,9.77-13.94,28.82,28.82,0,0,0,.41-16.88C56.75,9,39.27.07,24.07,5.31L22.84,1.54c1.78-.39,3.51-.8,5.25-1.14,1-.19,2-.27,3.06-.4Z"/><path class="cls-1" d="M0,31.59c.25-1.77.42-3.55.77-5.3A31.54,31.54,0,0,1,6.82,13.07C8,11.54,9.34,10.14,10.66,8.63L5.45,8l.46-3.86,12,1.42L16.44,17.72l-3.86-.48.63-5.37a29,29,0,0,0-8.1,29.5A28.57,28.57,0,0,0,18.74,58.55a28.86,28.86,0,0,0,21.7,2.9l1,3.87-5.54.84-.76.13H31c-1.11-.15-2.21-.26-3.31-.46a32.74,32.74,0,0,1-21.91-14A31.85,31.85,0,0,1,.5,38.59c-.21-1.33-.34-2.68-.5-4Z"/><path class="cls-1" d="M15.67,47c-.4-5.9,1.92-10.2,7.13-12.72a26.73,26.73,0,0,1-1.35-3.21A8.16,8.16,0,0,1,27.62,21a.89.89,0,0,0,.82-.83,8.24,8.24,0,0,1,16.16.33,8.12,8.12,0,0,1-1.31,6.09L43,27c5.42,2.57,7.84,6.85,7.39,12.9H42A13.72,13.72,0,0,1,43.14,47Zm4.14-3.9H39a7.55,7.55,0,0,0-6.33-5.68c-1.61-.12-3.23-.14-4.84-.1a9.69,9.69,0,0,0-2.79.39A7.6,7.6,0,0,0,19.81,43.1ZM25.05,29a4.35,4.35,0,1,0,4.42-4.29A4.38,4.38,0,0,0,25.05,29Zm7.16-7.71a8.4,8.4,0,0,1,4.94,4.91,4.21,4.21,0,0,0,3.68-4.05,4.36,4.36,0,0,0-3.72-4.49A4.3,4.3,0,0,0,32.21,21.25ZM36,34.19c.81.5,1.64,1,2.5,1.52a2.09,2.09,0,0,0,1,.31c1.66,0,3.31,0,5,0h1.88c-.22-.55-.35-1-.58-1.46a7.87,7.87,0,0,0-7.45-4.39c-.5,0-.81.07-.85.66a2.91,2.91,0,0,1-.29,1C36.76,32.63,36.35,33.43,36,34.19Z"/></g></g></svg>