<svg xmlns="http://www.w3.org/2000/svg" viewBox="0 0 54.01 58.17"><defs><style>.cls-1{fill:#fff;}</style></defs><g id="Layer_2" data-name="Layer 2"><g id="Layer_1-2" data-name="Layer 1"><path class="cls-1" d="M47.49,49.44H27.1c-6.18,0-12.37-.11-18.55.05-2.44.06-3.27-1-2.64-3a22.86,22.86,0,0,1,3-6.37,15.3,15.3,0,0,0,2.87-9.34,75.75,75.75,0,0,1,.56-11.07c.57-4.15,3.17-6.91,6.94-8.79a8.88,8.88,0,0,0,3.33-3.51c1-1.8,2.1-3,4.36-3s3.31,1.32,4.28,3.14a7.12,7.12,0,0,0,2.86,3.2C39.48,13,41.6,17.37,42,22.86a29.07,29.07,0,0,1,0,4.57c-.47,5.32.45,10.15,4,14.42A7.54,7.54,0,0,1,47.49,49.44Z"/><path class="cls-1" d="M34.1,52.63c-1.62,3.83-4.15,5.63-7.44,5.54s-5.68-2-6.9-5.54Z"/><path class="cls-1" d="M11.87,0c.3,1,.78,1.72.66,2.37s-.89.92-1.4,1.34A25.06,25.06,0,0,0,2.48,17.79C2.3,18.59,1.39,19.23.82,20,.53,19-.15,18,0,17.12A26.27,26.27,0,0,1,9.72,1.44C10.23,1,10.81.71,11.87,0Z"/><path class="cls-1" d="M54,18.85c-.17.19-.62,1-1,1-.58-.08-1.46-.64-1.56-1.13a26.19,26.19,0,0,0-9.86-15.9c-.39-.31-.28-1.26-.4-1.91C41.82.84,42.52.53,43,.73,47.29,2.5,54.22,13.69,54,18.85Z"/><path class="cls-1" d="M6.38,19.52A20.23,20.23,0,0,1,13.15,7.44c.42-.36,1.31-.18,2-.25-.09.74.1,1.78-.31,2.16A20.52,20.52,0,0,0,9,19.6c-.14.57-1.1.93-1.68,1.39Z"/><path class="cls-1" d="M47.39,19.68,46.29,21c-.52-.44-1.36-.8-1.49-1.33a20.34,20.34,0,0,0-6-10.47c-.37-.34-.18-1.29-.25-2,.67,0,1.58-.23,2,.11A20.24,20.24,0,0,1,47.39,19.68Z"/></g></g></svg>