<svg xmlns="http://www.w3.org/2000/svg" viewBox="0 0 40.67 40.67"><defs><style>.cls-1{fill:#0134c2;}</style></defs><g id="Layer_2" data-name="Layer 2"><g id="Layer_1-2" data-name="Layer 1"><path class="cls-1" d="M20.33,0A20.34,20.34,0,1,0,40.67,20.33,20.33,20.33,0,0,0,20.33,0Zm3.18,29.61a3.13,3.13,0,0,1-4.47,0,3.14,3.14,0,0,1-.87-2.23A3,3,0,0,1,19,25.17a3.25,3.25,0,0,1,4.47,0,3.06,3.06,0,0,1,.86,2.21A3.18,3.18,0,0,1,23.51,29.61Zm4.33-13.13A5.89,5.89,0,0,1,27,18a10.68,10.68,0,0,1-1.08,1.22L24.85,20.3A6,6,0,0,0,24,21.36a2.31,2.31,0,0,0-.33,1.23H18.82a5,5,0,0,1,.29-1.76,5.74,5.74,0,0,1,.72-1.37,9.27,9.27,0,0,1,1-1.1c.33-.33.65-.65.94-1a5.53,5.53,0,0,0,.72-.95,1.94,1.94,0,0,0,.29-1.06A1.66,1.66,0,0,0,22.06,14a2.76,2.76,0,0,0-1.73-.51,3.64,3.64,0,0,0-2,.57,4.17,4.17,0,0,0-1.43,1.59l-4.07-2.41A8.19,8.19,0,0,1,15.93,10a9.49,9.49,0,0,1,5-1.22,10.09,10.09,0,0,1,3.73.64,5.73,5.73,0,0,1,2.55,1.92,5.07,5.07,0,0,1,.93,3.1A5.8,5.8,0,0,1,27.84,16.48Z"/></g></g></svg>