<svg xmlns="http://www.w3.org/2000/svg" xmlns:xlink="http://www.w3.org/1999/xlink" viewBox="0 0 186.7 208.34"><defs><style>.cls-1{fill:url(#linear-gradient);}.cls-2{fill:url(#linear-gradient-2);}.cls-3{isolation:isolate;}.cls-12,.cls-19,.cls-24,.cls-28,.cls-4,.cls-8{mix-blend-mode:multiply;}.cls-5{clip-path:url(#clip-path);}.cls-6,.cls-8{fill:url(#linear-gradient-4);}.cls-7{fill:url(#linear-gradient-5);}.cls-9{clip-path:url(#clip-path-2);}.cls-10,.cls-12{fill:url(#linear-gradient-8);}.cls-11{fill:url(#linear-gradient-9);}.cls-13{fill:url(#linear-gradient-11);}.cls-14{fill:url(#linear-gradient-12);}.cls-15{fill:url(#radial-gradient);}.cls-16{fill:#fff;}.cls-17{fill:url(#linear-gradient-13);}.cls-18{fill:url(#linear-gradient-14);}.cls-19{fill:url(#linear-gradient-15);}.cls-20{fill:url(#linear-gradient-16);}.cls-21{fill:url(#linear-gradient-17);}.cls-22{fill:url(#linear-gradient-18);}.cls-23{fill:url(#linear-gradient-19);}.cls-24{fill:url(#linear-gradient-20);}.cls-25{fill:url(#linear-gradient-21);}.cls-26{fill:url(#linear-gradient-22);}.cls-27,.cls-28{fill:url(#linear-gradient-23);}.cls-29{fill:url(#linear-gradient-25);}</style><linearGradient id="linear-gradient" x1="106.48" y1="169.92" x2="183.31" y2="169.92" gradientUnits="userSpaceOnUse"><stop offset="0" stop-color="#fd960b"/><stop offset="1" stop-color="#fddd3b"/></linearGradient><linearGradient id="linear-gradient-2" x1="3.39" y1="169.92" x2="80.22" y2="169.92" xlink:href="#linear-gradient"/><clipPath id="clip-path"><polygon class="cls-1" points="148.63 131.51 106.47 173.66 141.16 208.34 155.92 180.96 183.31 166.19 148.63 131.51"/></clipPath><linearGradient id="linear-gradient-4" x1="106.48" y1="169.92" x2="183.31" y2="169.92" gradientTransform="translate(162.59 -52.68) rotate(45)" xlink:href="#linear-gradient"/><linearGradient id="linear-gradient-5" x1="121.39" y1="169.92" x2="168.39" y2="169.92" gradientTransform="translate(162.59 -52.68) rotate(45)" xlink:href="#linear-gradient"/><clipPath id="clip-path-2"><polygon class="cls-2" points="38.07 131.51 80.22 173.66 45.54 208.34 30.78 180.96 3.39 166.19 38.07 131.51"/></clipPath><linearGradient id="linear-gradient-8" x1="3.39" y1="169.92" x2="80.22" y2="169.92" gradientTransform="translate(191.53 260.52) rotate(135)" xlink:href="#linear-gradient"/><linearGradient id="linear-gradient-9" x1="18.31" y1="169.92" x2="65.31" y2="169.92" gradientTransform="translate(191.53 260.52) rotate(135)" xlink:href="#linear-gradient"/><linearGradient id="linear-gradient-11" y1="92.88" x2="186.7" y2="92.88" gradientUnits="userSpaceOnUse"><stop offset="0" stop-color="#77129b"/><stop offset="0.19" stop-color="#7b129d"/><stop offset="0.37" stop-color="#8612a4"/><stop offset="0.54" stop-color="#9912af"/><stop offset="0.72" stop-color="#b412bf"/><stop offset="0.88" stop-color="#d612d3"/><stop offset="1" stop-color="#f212e4"/></linearGradient><linearGradient id="linear-gradient-12" x1="9.99" y1="142.22" x2="176.71" y2="142.22" xlink:href="#linear-gradient-11"/><radialGradient id="radial-gradient" cx="92.98" cy="80.36" r="75.02" gradientUnits="userSpaceOnUse"><stop offset="0.61" stop-color="#fff"/><stop offset="0.97" stop-color="#d7d5e2"/><stop offset="1" stop-color="#d4d1e0"/></radialGradient><linearGradient id="linear-gradient-13" x1="25.3" y1="138.35" x2="161.4" y2="138.35" xlink:href="#linear-gradient"/><linearGradient id="linear-gradient-14" x1="93.35" y1="81.4" x2="147.56" y2="81.4" xlink:href="#linear-gradient"/><linearGradient id="linear-gradient-15" x1="125.99" y1="87.66" x2="103.72" y2="76.2" xlink:href="#linear-gradient"/><linearGradient id="linear-gradient-16" x1="147.73" y1="49.78" x2="126.52" y2="41.78" xlink:href="#linear-gradient"/><linearGradient id="linear-gradient-17" x1="103.57" y1="60.46" x2="121.4" y2="54.83" xlink:href="#linear-gradient"/><linearGradient id="linear-gradient-18" x1="79.87" y1="107.66" x2="108.51" y2="58.06" xlink:href="#linear-gradient"/><linearGradient id="linear-gradient-19" x1="-11218.77" y1="81.4" x2="-11164.56" y2="81.4" gradientTransform="matrix(-1, 0, 0, 1, -11125.42, 0)" xlink:href="#linear-gradient"/><linearGradient id="linear-gradient-20" x1="59.4" y1="88.64" x2="79.81" y2="77.24" xlink:href="#linear-gradient"/><linearGradient id="linear-gradient-21" x1="-11188" y1="46.46" x2="-11164.56" y2="46.46" gradientTransform="matrix(-1, 0, 0, 1, -11125.42, 0)" xlink:href="#linear-gradient"/><linearGradient id="linear-gradient-22" x1="80" y1="47.45" x2="67.27" y2="61.61" xlink:href="#linear-gradient"/><linearGradient id="linear-gradient-23" x1="-11197.17" y1="102.97" x2="-11224.62" y2="55.44" gradientTransform="matrix(-1, 0, 0, 1, -11125.42, 0)" xlink:href="#linear-gradient"/><linearGradient id="linear-gradient-25" x1="95.29" y1="23.78" x2="92.44" y2="45.77" xlink:href="#linear-gradient"/></defs><g class="cls-3"><g id="Layer_2" data-name="Layer 2"><g id="Layer_1-2" data-name="Layer 1"><g class="cls-4"><polygon class="cls-1" points="148.63 131.51 106.47 173.66 141.16 208.34 155.92 180.96 183.31 166.19 148.63 131.51"/><g class="cls-5"><rect class="cls-6" x="115.09" y="145.4" width="59.61" height="49.05" transform="translate(-77.72 152.22) rotate(-45)"/><rect class="cls-7" x="136.18" y="145.4" width="17.41" height="49.05" transform="translate(-77.72 152.22) rotate(-45)"/><rect class="cls-8" x="115.09" y="145.4" width="59.61" height="49.05" transform="translate(-77.72 152.22) rotate(-45)"/></g><polygon class="cls-2" points="38.07 131.51 80.22 173.66 45.54 208.34 30.78 180.96 3.39 166.19 38.07 131.51"/><g class="cls-9"><rect class="cls-10" x="12" y="145.4" width="59.61" height="49.05" transform="translate(-48.78 319.64) rotate(-135)"/><rect class="cls-11" x="33.1" y="145.4" width="17.41" height="49.05" transform="translate(-48.78 319.64) rotate(-135)"/><rect class="cls-12" x="12" y="145.4" width="59.61" height="49.05" transform="translate(-48.78 319.64) rotate(-135)"/></g></g><path class="cls-13" d="M92.8,185.76a33.06,33.06,0,0,1-17.64-5.08,155.47,155.47,0,0,1-32.95-27.83C17.5,125.38,3.34,91.51.11,52.19A33.28,33.28,0,0,1,24.54,17.35L84,1.17A33.09,33.09,0,0,1,92.77,0a33.44,33.44,0,0,1,8.62,1.13L162,17.39a33.22,33.22,0,0,1,24.54,34.9c-2.79,33-13.35,62.2-31.39,86.9a159.88,159.88,0,0,1-45,41.67A33.19,33.19,0,0,1,92.8,185.76Z"/><path class="cls-14" d="M10,98.68a161.3,161.3,0,0,0,32.27,54.17,155.47,155.47,0,0,0,32.95,27.83,33.2,33.2,0,0,0,35,.18,160,160,0,0,0,45-41.67,160.65,160.65,0,0,0,21.46-40.51Z"/><path class="cls-15" d="M100.71,165.43a15.09,15.09,0,0,1-15.93-.07,138.69,138.69,0,0,1-29.12-24.61C33.4,116,21,85.51,18.15,50.71a15.18,15.18,0,0,1,11.14-15.9l59.5-16.18a15.16,15.16,0,0,1,7.91,0l60.65,16.26a15.16,15.16,0,0,1,11.2,15.9C162.82,118.47,122.31,152.18,100.71,165.43Z"/><path class="cls-16" d="M92.77,26a7,7,0,0,1,1.88.25L155.3,42.51a7.24,7.24,0,0,1,5.36,7.59c-2.38,28.14-11.28,53-26.47,73.75a133.53,133.53,0,0,1-37.62,34.84,7.28,7.28,0,0,1-3.77,1.06,7.13,7.13,0,0,1-3.81-1.1,130.94,130.94,0,0,1-27.44-23.19C40.74,112.31,28.79,83.58,26,50.06a7.26,7.26,0,0,1,5.33-7.61l59.5-16.19a7.62,7.62,0,0,1,1.9-.25m0-7.92a15,15,0,0,0-4,.54L29.29,34.81a15.18,15.18,0,0,0-11.14,15.9C21,85.51,33.4,116,55.66,140.75a138.69,138.69,0,0,0,29.12,24.61,15.08,15.08,0,0,0,15.93.07c21.6-13.25,62.11-47,67.84-114.66a15.16,15.16,0,0,0-11.2-15.9L96.7,18.61a15.43,15.43,0,0,0-3.93-.52Z"/><path class="cls-17" d="M27.53,149.26h0a17.62,17.62,0,0,0,18.3,8.8A360.23,360.23,0,0,1,96.27,154a279.07,279.07,0,0,1,44.36,3.9,17.59,17.59,0,0,0,18.48-8.77l.06-.12A17.57,17.57,0,0,0,147,123.19a296.52,296.52,0,0,0-50.71-4.78,365.65,365.65,0,0,0-56.32,5A17.58,17.58,0,0,0,27.53,149.26Z"/><polygon class="cls-18" points="124.12 47.36 147.56 54.19 93.35 115.44 122.47 66.12 124.12 47.36"/><polygon class="cls-19" points="124.12 47.36 147.56 54.19 93.35 115.44 122.47 66.12 124.12 47.36"/><polygon class="cls-20" points="135.65 38.74 147.56 54.19 124.12 47.36 135.65 38.74"/><polygon class="cls-21" points="93.35 52.06 122.47 66.12 124.12 47.36 93.35 52.06"/><polygon class="cls-22" points="93.35 52.06 93.35 115.44 122.47 66.12 93.35 52.06"/><polygon class="cls-23" points="62.58 47.36 39.14 54.19 93.35 115.44 64.23 66.12 62.58 47.36"/><polygon class="cls-24" points="62.58 47.36 39.14 54.19 93.35 115.44 64.23 66.12 62.58 47.36"/><polygon class="cls-25" points="51.05 38.74 39.14 54.19 62.58 47.36 51.05 38.74"/><polygon class="cls-26" points="93.35 52.06 64.23 66.12 62.58 47.36 93.35 52.06"/><polygon class="cls-27" points="93.35 52.06 93.35 115.44 64.23 66.12 93.35 52.06"/><polygon class="cls-28" points="93.35 52.06 93.35 115.44 64.23 66.12 93.35 52.06"/><polygon class="cls-29" points="122.08 30.51 93.35 26.59 64.62 30.51 51.05 38.74 62.58 47.36 93.35 52.06 124.12 47.36 135.65 38.74 122.08 30.51"/></g></g></g></svg>