<svg xmlns="http://www.w3.org/2000/svg" viewBox="0 0 91.04 91.04"><defs><style>.cls-1{fill:#0134c2;}.cls-2{fill:#fff;}</style></defs><g id="Layer_2" data-name="Layer 2"><g id="Layer_1-2" data-name="Layer 1"><circle class="cls-1" cx="45.52" cy="45.52" r="45.52"/><path class="cls-2" d="M42.8,73.11a1.27,1.27,0,0,1-.37-1.1q0-10.44,0-20.89v-.8H28.89a1.4,1.4,0,0,1-.82-.21c-.38-.31-.19-.69,0-1l6.85-11.48L47.12,17.2c.07-.13.12-.31.23-.37s.53-.32.75-.27.35.37.45.6a1.43,1.43,0,0,1,0,.55V39.38H61.13c1,0,1.28.43.78,1.3q-9,15.9-18.07,31.77a5.12,5.12,0,0,1-.49.66Z"/></g></g></svg>