<svg xmlns="http://www.w3.org/2000/svg" viewBox="0 0 78.93 78.93"><defs><style>.cls-1{fill:#0134c2;}</style></defs><g id="Layer_2" data-name="Layer 2"><g id="Layer_1-2" data-name="Layer 1"><path class="cls-1" d="M39.46,0A39.47,39.47,0,1,0,78.93,39.46,39.46,39.46,0,0,0,39.46,0Zm.3,11.78c7.16,0,13,5.08,13,11.49S47,34.79,39.86,34.81s-13-5.2-13-11.48S32.58,11.83,39.76,11.78Zm14.85,47.7a1.89,1.89,0,0,0-.34.09H26c-.61-.11-1.23-.2-1.83-.35-3.83-1-6.25-3.58-6.42-7.16a23,23,0,0,1,1.86-10.79,10.29,10.29,0,0,1,5-5.34,10.8,10.8,0,0,1,4.89-1,4,4,0,0,1,1.6.5c.8.38,1.53.86,2.31,1.28a13.19,13.19,0,0,0,13.48,0c.62-.35,1.26-.68,1.84-1.07A4.9,4.9,0,0,1,52.29,35a10,10,0,0,1,7.6,4.86,18.29,18.29,0,0,1,2.45,7.75,34.57,34.57,0,0,1,.2,4.19C62.49,55.92,59.27,59,54.61,59.48Z"/></g></g></svg>