<svg xmlns="http://www.w3.org/2000/svg" viewBox="0 0 42.87 42.95"><defs><style>.cls-1{fill:#0134c2;}</style></defs><g id="Layer_2" data-name="Layer 2"><g id="Layer_1-2" data-name="Layer 1"><path class="cls-1" d="M42.87,20.13v2.69a1.83,1.83,0,0,0-.07.32,20.4,20.4,0,0,1-2.91,9.21A21.15,21.15,0,0,1,25.12,42.62c-.77.15-1.56.22-2.35.33H20.09l-.4-.08c-.9-.13-1.8-.2-2.69-.39A21,21,0,0,1,4.45,34.53,20.9,20.9,0,0,1,.32,17.87,20.71,20.71,0,0,1,6.2,6.4,21,21,0,0,1,17.74.33C18.52.19,19.31.11,20.09,0h2.68c.73.1,1.47.17,2.19.29A21,21,0,0,1,35.6,5.39a21.12,21.12,0,0,1,6.94,12.39C42.68,18.56,42.76,19.35,42.87,20.13ZM21.39,35.38c.94-.11,1.89-.16,2.81-.35A13.84,13.84,0,1,0,9.49,28.41a.73.73,0,0,1,0,.7c-.6,1.5-1.17,3-1.77,4.52a1.14,1.14,0,0,0,1.55,1.54c1.49-.59,3-1.15,4.47-1.75a.81.81,0,0,1,.81.07A14.44,14.44,0,0,0,21.39,35.38Z"/><path class="cls-1" d="M10.68,32.25c.41-1.07.78-2,1.17-3a1.45,1.45,0,0,0-.14-1.46,11.58,11.58,0,1,1,11.56,5.16,11.2,11.2,0,0,1-8.08-1.69,1.54,1.54,0,0,0-1.57-.15C12.68,31.5,11.73,31.84,10.68,32.25Z"/></g></g></svg>