<svg xmlns="http://www.w3.org/2000/svg" xmlns:xlink="http://www.w3.org/1999/xlink" viewBox="0 0 163.72 198.45"><defs><style>.cls-1,.cls-6{fill:url(#linear-gradient);}.cls-2{isolation:isolate;}.cls-3{clip-path:url(#clip-path);}.cls-4{fill:url(#linear-gradient-4);}.cls-5{fill:url(#linear-gradient-5);}.cls-6{mix-blend-mode:multiply;}.cls-7{fill:url(#linear-gradient-7);}.cls-11,.cls-12,.cls-8{fill:#fff;}.cls-9{fill:url(#linear-gradient-8);}.cls-10{fill:url(#linear-gradient-9);}.cls-11{font-size:15.04px;}.cls-11,.cls-12{stroke:#fff;stroke-linecap:round;stroke-linejoin:round;stroke-width:1.88px;font-family:Poppins-ExtraLight, Poppins;font-weight:200;}.cls-12{font-size:15.04px;}</style><linearGradient id="linear-gradient" x1="47.7" y1="172.45" x2="116.02" y2="172.45" gradientUnits="userSpaceOnUse"><stop offset="0" stop-color="#fd960b"/><stop offset="1" stop-color="#fddd3b"/></linearGradient><clipPath id="clip-path"><polygon class="cls-1" points="116.02 146.46 47.7 146.46 47.7 198.45 81.86 188.22 116.02 198.45 116.02 146.46"/></clipPath><linearGradient id="linear-gradient-4" x1="55.84" y1="172.45" x2="61.98" y2="172.45" xlink:href="#linear-gradient"/><linearGradient id="linear-gradient-5" x1="101.94" y1="172.45" x2="108.08" y2="172.45" xlink:href="#linear-gradient"/><linearGradient id="linear-gradient-7" x1="0" y1="88.28" x2="163.72" y2="88.28" xlink:href="#linear-gradient"/><linearGradient id="linear-gradient-8" x1="51.45" y1="88.13" x2="114.12" y2="88.13" xlink:href="#linear-gradient"/><linearGradient id="linear-gradient-9" x1="51.45" y1="75.51" x2="112.96" y2="75.51" xlink:href="#linear-gradient"/></defs><g class="cls-2"><g id="Layer_2" data-name="Layer 2"><g id="Layer_1-2" data-name="Layer 1"><polygon class="cls-1" points="116.02 146.46 47.7 146.46 47.7 198.45 81.86 188.22 116.02 198.45 116.02 146.46"/><g class="cls-3"><rect class="cls-1" x="47.7" y="146.46" width="68.32" height="51.98"/><rect class="cls-4" x="55.84" y="146.46" width="6.14" height="51.98"/><rect class="cls-5" x="101.94" y="146.46" width="6.14" height="51.98"/><rect class="cls-6" x="47.7" y="146.46" width="68.32" height="51.98"/></g><path class="cls-7" d="M161.6,106.79A81.86,81.86,0,0,1,60.33,167.27C18.09,155.78-7.8,112.41,2.11,69.77a81.87,81.87,0,0,1,159.49,37Z"/><circle class="cls-8" cx="82.57" cy="88.28" r="46.1" transform="translate(-37.31 72.79) rotate(-39.55)"/><circle class="cls-8" cx="82.57" cy="88.28" r="49.69" transform="translate(-31.29 47.69) rotate(-27.29)"/><path class="cls-9" d="M87.26,61l5.38,11.68a5.07,5.07,0,0,0,4.11,2.94l12.78,1.3a5.11,5.11,0,0,1,2.94,8.83L103,94.43a5.09,5.09,0,0,0-1.53,4.82l2.72,12.57a5.11,5.11,0,0,1-7.48,5.54l-11.21-6.29a5.08,5.08,0,0,0-5.05,0l-11.11,6.47a5.1,5.1,0,0,1-7.56-5.41l2.51-12.62a5.13,5.13,0,0,0-1.6-4.8l-9.58-8.57A5.11,5.11,0,0,1,56,77.3l12.76-1.51a5.1,5.1,0,0,0,4.07-3L78,61A5.1,5.1,0,0,1,87.26,61Z"/><path class="cls-10" d="M58.15,90.66c2.07.55,4.15,1,6.25,1.41a56.5,56.5,0,0,0,26.11-1.18,68.82,68.82,0,0,0,21-11L113,78.72a5,5,0,0,0-3.43-1.85l-12.78-1.3a5.07,5.07,0,0,1-4.11-2.94L87.26,61A5.1,5.1,0,0,0,78,61L72.78,72.79a5.1,5.1,0,0,1-4.07,3L56,77.3a5.11,5.11,0,0,0-2.8,8.88Z"/><path class="cls-8" d="M16.51,103.74s-1.72-6.48-3.5-9.1S8.21,90.46,7.86,88c0,0-.48,5.5,1.24,9.31a9.68,9.68,0,0,0,4.8,4.35A10.85,10.85,0,0,1,16.51,103.74Z"/><path class="cls-8" d="M21.56,60.73s2.67-4.29,3.19-6.82,1-6.46,1.94-7.8c0,0-3.84,2.8-5,5.78a11.94,11.94,0,0,0-.16,5.77A13.59,13.59,0,0,1,21.56,60.73Z"/><path class="cls-8" d="M17.05,103.44S14.76,96.9,16,94.5s4.26-4.35,4.83-5.65c0,0,.72,4.46.12,7.05-.36,1.55-1.92,3.24-2.91,4.49A6.82,6.82,0,0,0,17.05,103.44Z"/><path class="cls-8" d="M22.4,60.56s1.61-4.47,4-5.1c1.77-.45,4.86-.92,5.82-1.3,0,0-1.48,3.76-4.19,5-.88.41-1.87.2-3,.45A11.38,11.38,0,0,0,22.4,60.56Z"/><path class="cls-8" d="M18.65,70.65s2-5.71,1.61-8.91-2.5-5.9-1.83-8c0,0-2.62,4.2-2.77,8.33a9.65,9.65,0,0,0,1.56,5.68A26.73,26.73,0,0,1,18.65,70.65Z"/><path class="cls-8" d="M19.6,71.12s.87-6.8,2.71-8.05,5.61-1.54,6.58-2.31a27.28,27.28,0,0,1-2.93,6c-.89,1.11-3.27,2-4.48,2.39C20.49,69.54,19.6,71.12,19.6,71.12Z"/><path class="cls-8" d="M26.33,53.89c2.28-1.57,5.06-1.72,6.39-4.12a26.23,26.23,0,0,1,4.63-6.2,10.65,10.65,0,0,0-7.21,2.7C28.1,48.18,26.33,53.89,26.33,53.89Z"/><path class="cls-8" d="M35.52,132.18c.16.27.09.46-.15.49-.43,0-1.3-2-2-2.83C32,128.27,31,128.12,30,128.31a5.31,5.31,0,0,0-2.47,1.14,4.15,4.15,0,0,1-3.76,1c-4-1.16-4.85-5.46-4.85-5.46s1,.83,3.41.41a12.5,12.5,0,0,1,5.2-.26C31.15,125.92,33.84,129.54,35.52,132.18Z"/><path class="cls-8" d="M26.58,122.18s-3.94-4.57-6.39-5.41-6.41-.56-7.74-2.19c0,0,1,5.53,5.77,7.59a7.93,7.93,0,0,0,5.46,0A6.5,6.5,0,0,1,26.58,122.18Z"/><path class="cls-8" d="M26.88,121.54s-4.39-4.22-4.42-7.05,1.58-6.41,1.5-7.85a20,20,0,0,1,2.9,5.9c.32,1.57-.23,4-.49,5.72A8,8,0,0,0,26.88,121.54Z"/><path class="cls-8" d="M19.78,113.54s-2.46-5.94-4.55-8S9.79,104,9.05,101.7c0,0,.24,5.28,2.42,8.46,1.31,1.91,4,1.77,5.54,2A8.33,8.33,0,0,1,19.78,113.54Z"/><path class="cls-8" d="M20.25,113.1s-2.93-5.09-2.2-7.7,3.49-5.13,3.8-6.52a10.37,10.37,0,0,1,.76,4.75c-.13,1.58-1.36,3.82-2.19,6.18A8.48,8.48,0,0,0,20.25,113.1Z"/><path class="cls-8" d="M15.51,81.79s1.92-5.55,1.23-8.74c-.64-3-3.89-5.52-3.08-7.9a10.86,10.86,0,0,0-2.31,7.4c.28,3.12,1.89,4.58,2.86,6A12.38,12.38,0,0,1,15.51,81.79Z"/><path class="cls-8" d="M16.11,81.81s1-7,3.08-8.53,4.84-1.77,5.92-2.63c0,0-1.12,4.7-2.79,6.69-1,1.19-2.61,1.68-4,2.27A6.18,6.18,0,0,0,16.11,81.81Z"/><path class="cls-8" d="M14.64,92.42s.3-5.75-.61-8.66-4.11-5.26-3.75-7.67c0,0-2.11,4.86-1.62,8.84.29,2.39,2.68,3.66,3.88,4.69A13.86,13.86,0,0,1,14.64,92.42Z"/><path class="cls-8" d="M15.23,92.86s-.83-6,.77-8.13,5-3.31,5.8-4.47a10.88,10.88,0,0,1-1,4.76c-.68,1.42-2.6,3-4.2,4.84A8.49,8.49,0,0,0,15.23,92.86Z"/><path class="cls-8" d="M33.85,128.89s-.65-.63-1.91-2-3.09-3.44-3.36-4.67c-.54-2.48.15-6-.18-7.27A19.06,19.06,0,0,1,32,119.81c.58,1.36.57,3.6.66,5.14A17.69,17.69,0,0,0,33.85,128.89Z"/><path class="cls-8" d="M147.21,103.74s1.72-6.48,3.49-9.1,4.8-4.18,5.15-6.64c0,0,.49,5.5-1.23,9.31a9.68,9.68,0,0,1-4.8,4.35A10.63,10.63,0,0,0,147.21,103.74Z"/><path class="cls-8" d="M142.16,60.73s-2.67-4.29-3.19-6.82-1-6.46-1.95-7.8c0,0,3.84,2.8,5,5.78a12.07,12.07,0,0,1,.16,5.77A13,13,0,0,0,142.16,60.73Z"/><path class="cls-8" d="M146.67,103.44s2.29-6.54,1.08-8.94-4.26-4.35-4.84-5.65c0,0-.71,4.46-.12,7.05.36,1.55,1.92,3.24,2.92,4.49A6.82,6.82,0,0,1,146.67,103.44Z"/><path class="cls-8" d="M141.31,60.56s-1.61-4.47-4-5.1c-1.77-.45-4.86-.92-5.83-1.3,0,0,1.49,3.76,4.19,5,.89.41,1.87.2,3,.45A11.17,11.17,0,0,1,141.31,60.56Z"/><path class="cls-8" d="M145.07,70.65s-2-5.71-1.61-8.91,2.49-5.9,1.83-8c0,0,2.62,4.2,2.77,8.33a9.8,9.8,0,0,1-1.56,5.68A26.73,26.73,0,0,0,145.07,70.65Z"/><path class="cls-8" d="M144.12,71.12s-.87-6.8-2.71-8.05-5.61-1.54-6.59-2.31a27.49,27.49,0,0,0,2.94,6c.88,1.11,3.26,2,4.48,2.39C143.23,69.54,144.12,71.12,144.12,71.12Z"/><path class="cls-8" d="M137.38,53.89c-2.27-1.57-5-1.72-6.38-4.12a26.09,26.09,0,0,0-4.64-6.2,10.68,10.68,0,0,1,7.22,2.7C135.62,48.18,137.38,53.89,137.38,53.89Z"/><path class="cls-8" d="M128.2,132.18c-.17.27-.09.46.15.49.42,0,1.3-2,2-2.83,1.34-1.57,2.29-1.72,3.38-1.53a5.3,5.3,0,0,1,2.48,1.14,4.15,4.15,0,0,0,3.76,1c4-1.16,4.84-5.46,4.84-5.46s-1,.83-3.41.41a12.45,12.45,0,0,0-5.19-.26C132.56,125.92,129.87,129.54,128.2,132.18Z"/><path class="cls-8" d="M137.14,122.18s3.93-4.57,6.38-5.41,6.42-.56,7.74-2.19c0,0-1,5.53-5.76,7.59a8,8,0,0,1-5.47,0A6.46,6.46,0,0,0,137.14,122.18Z"/><path class="cls-8" d="M136.83,121.54s4.4-4.22,4.43-7.05-1.58-6.41-1.51-7.85a19.82,19.82,0,0,0-2.89,5.9c-.32,1.57.23,4,.49,5.72A7.91,7.91,0,0,1,136.83,121.54Z"/><path class="cls-8" d="M143.94,113.54s2.46-5.94,4.54-8,5.45-1.61,6.18-3.87c0,0-.23,5.28-2.42,8.46-1.3,1.91-4,1.77-5.53,2A8.33,8.33,0,0,0,143.94,113.54Z"/><path class="cls-8" d="M143.47,113.1s2.93-5.09,2.19-7.7-3.48-5.13-3.8-6.52a10.44,10.44,0,0,0-.75,4.75c.13,1.58,1.36,3.82,2.19,6.18A8.69,8.69,0,0,1,143.47,113.1Z"/><path class="cls-8" d="M148.21,81.79s-1.93-5.55-1.24-8.74c.65-3,3.89-5.52,3.09-7.9a10.86,10.86,0,0,1,2.31,7.4c-.29,3.12-1.89,4.58-2.86,6A12.38,12.38,0,0,0,148.21,81.79Z"/><path class="cls-8" d="M147.61,81.81s-1-7-3.09-8.53-4.84-1.77-5.92-2.63c0,0,1.13,4.7,2.8,6.69,1,1.19,2.61,1.68,4,2.27A6.15,6.15,0,0,1,147.61,81.81Z"/><path class="cls-8" d="M149.08,92.42s-.3-5.75.6-8.66,4.11-5.26,3.75-7.67c0,0,2.12,4.86,1.63,8.84-.29,2.39-2.68,3.66-3.88,4.69A13.46,13.46,0,0,0,149.08,92.42Z"/><path class="cls-8" d="M148.49,92.86s.82-6-.78-8.13-5-3.31-5.79-4.47a11,11,0,0,0,1,4.76c.69,1.42,2.61,3,4.21,4.84A8.49,8.49,0,0,1,148.49,92.86Z"/><path class="cls-8" d="M129.87,128.89s.64-.63,1.9-2,3.1-3.44,3.36-4.67c.54-2.48-.14-6,.19-7.27a18.81,18.81,0,0,0-3.57,4.82c-.59,1.36-.57,3.6-.66,5.14A18.25,18.25,0,0,1,129.87,128.89Z"/><text class="cls-11" transform="translate(40.77 153.34) rotate(35.01)">LEVEL UP</text><text class="cls-12" transform="matrix(0.86, -0.51, 0.51, 0.86, 47.83, 47.84)">LEVEL UP</text></g></g></g></svg>