<svg xmlns="http://www.w3.org/2000/svg" viewBox="0 0 91.04 91.04"><defs><style>.cls-1{fill:#0134c2;}.cls-2{fill:#fff;}</style></defs><g id="Layer_2" data-name="Layer 2"><g id="Layer_1-2" data-name="Layer 1"><circle class="cls-1" cx="45.52" cy="45.52" r="45.52"/><path class="cls-2" d="M53.81,45.55q0-7.36,0-14.74a3.41,3.41,0,0,1,2.7-3.51,3.45,3.45,0,0,1,4.17,3.15V60.38a3.43,3.43,0,0,1-6.85.32c-.06-1.93,0-3.85,0-5.78C53.81,51.8,53.81,48.67,53.81,45.55Z"/><path class="cls-2" d="M42.88,50.11q0-5,0-10.07a3.44,3.44,0,1,1,6.88-.32c0,.11,0,.22,0,.33V60.28A3.48,3.48,0,0,1,47,63.86a3.44,3.44,0,0,1-4.06-3q0-.39,0-.78Q42.88,55.11,42.88,50.11Z"/><path class="cls-2" d="M38.86,54.77c0,1.85,0,3.71,0,5.57a3.45,3.45,0,1,1-6.89.08c0-3.79,0-7.57,0-11.35a5.48,5.48,0,0,1,0-.57,3.44,3.44,0,0,1,3.54-2.93,3.38,3.38,0,0,1,3.26,3.13c.08,1.17,0,2.34,0,3.51C38.86,53.06,38.86,53.91,38.86,54.77Z"/><path class="cls-2" d="M28,59.33a14.28,14.28,0,0,1-.16,2,3.41,3.41,0,0,1-3.74,2.6,3.45,3.45,0,0,1-3-3.3,20.65,20.65,0,0,1,.08-3.05,3.37,3.37,0,0,1,3.55-2.8A3.43,3.43,0,0,1,27.91,58c0,.44,0,.88,0,1.32Z"/></g></g></svg>