<svg xmlns="http://www.w3.org/2000/svg" viewBox="0 0 91.04 91.04"><defs><style>.cls-1{fill:#0134c2;}.cls-2{fill:#fff;}</style></defs><g id="Layer_2" data-name="Layer 2"><g id="Layer_1-2" data-name="Layer 1"><circle class="cls-1" cx="45.52" cy="45.52" r="45.52"/><path class="cls-2" d="M50.18,57.86l2.46,1.31c.52.27,1,.54,1.55.82a1.07,1.07,0,1,1-1,1.89c-1.81-1-3.62-1.92-5.42-2.88-.58-.31-1.17-.6-1.74-.93a.62.62,0,0,0-.68,0l-7.2,3.82a1,1,0,0,1-1.25-.08,1.06,1.06,0,0,1-.32-1.21A1.7,1.7,0,0,1,37.2,60c1.26-.69,2.53-1.35,3.8-2a.34.34,0,0,0,.17-.21h-.44c-3.68,0-7.37,0-11,0a4.86,4.86,0,0,1-5-3.94,5.3,5.3,0,0,1-.1-1.12q0-8.93,0-17.84a4.89,4.89,0,0,1,5.08-5.05h32a4.89,4.89,0,0,1,5.07,5.06q0,8.9,0,17.79a4.89,4.89,0,0,1-5.08,5.1c-3.67,0-7.34,0-11,0h-.45ZM45.72,32h-16a2.76,2.76,0,0,0-3,3V52.63a3.77,3.77,0,0,0,0,.67,2.76,2.76,0,0,0,2.92,2.32q15.95,0,31.89,0c.11,0,.22,0,.33,0a2.74,2.74,0,0,0,2.66-2.7q0-9.12,0-18.25a2.64,2.64,0,0,0-.69-1.79A2.91,2.91,0,0,0,61.58,32C56.29,32,51,32,45.72,32Z"/><path class="cls-2" d="M51.86,45.2c.25-.5.46-.93.67-1.37.7-1.42,1.39-2.85,2.09-4.27a1.11,1.11,0,0,1,1.2-.7,1.07,1.07,0,0,1,.76,1.55c-.35.76-.73,1.5-1.09,2.25-.86,1.76-1.73,3.52-2.58,5.29a1.11,1.11,0,0,1-2.1,0c-1.21-2.49-2.43-5-3.64-7.46a1.06,1.06,0,0,1,.67-1.61,1,1,0,0,1,1.27.69l2.52,5.17C51.69,44.88,51.76,45,51.86,45.2Z"/><path class="cls-2" d="M38.69,41H35.88a1.09,1.09,0,1,1,0-2.15h7.78a1.08,1.08,0,0,1,1.07,1.53,1,1,0,0,1-1.09.62H40.83v6.59a1.06,1.06,0,0,1-1.16,1.13,1,1,0,0,1-.94-.81,2.83,2.83,0,0,1,0-.58c0-1.92,0-3.84,0-5.76Z"/></g></g></svg>