<svg xmlns="http://www.w3.org/2000/svg" viewBox="0 0 53.8 53.8"><defs><style>.cls-1{fill:#ff0c00;opacity:0.3;}</style></defs><g id="Layer_2" data-name="Layer 2"><g id="Layer_1-2" data-name="Layer 1"><path class="cls-1" d="M41.14,0H12.66A12.7,12.7,0,0,0,0,12.66V41.14A12.7,12.7,0,0,0,12.66,53.8H41.14A12.7,12.7,0,0,0,53.8,41.14V12.66A12.7,12.7,0,0,0,41.14,0Zm-.88,28.5-18.62,11a1.81,1.81,0,0,1-.95.26,1.86,1.86,0,0,1-1-3.47l16-9.48-16-10.16a1.87,1.87,0,1,1,2-3.15L40.31,25.32a1.88,1.88,0,0,1,.87,1.61A1.85,1.85,0,0,1,40.26,28.5Z"/></g></g></svg>