<svg xmlns="http://www.w3.org/2000/svg" xmlns:xlink="http://www.w3.org/1999/xlink" viewBox="0 0 172.97 214.45"><defs><style>.cls-1,.cls-4,.cls-5{fill:#30ea15;}.cls-2{isolation:isolate;}.cls-3{clip-path:url(#clip-path);}.cls-4,.cls-8{mix-blend-mode:multiply;}.cls-5{opacity:0.72;}.cls-6{clip-path:url(#clip-path-2);}.cls-7{fill:#0134c2;}.cls-8{fill:url(#radial-gradient);}.cls-9{fill:url(#radial-gradient-2);}.cls-10,.cls-18{fill:#fff;}.cls-11{fill:url(#linear-gradient);}.cls-12{fill:url(#linear-gradient-2);}.cls-13{fill:url(#linear-gradient-3);}.cls-14{fill:url(#linear-gradient-4);}.cls-15{fill:url(#linear-gradient-5);}.cls-16{fill:url(#linear-gradient-6);}.cls-17{fill:url(#linear-gradient-7);}.cls-18{font-size:27.23px;stroke:#fff;stroke-linecap:round;stroke-linejoin:round;stroke-width:3.4px;font-family:Poppins-ExtraLight, Poppins;font-weight:200;}</style><clipPath id="clip-path"><polygon class="cls-1" points="142.75 154.15 99.44 179.16 119.81 214.45 137.76 195.52 163.12 189.44 142.75 154.15"/></clipPath><clipPath id="clip-path-2"><polygon class="cls-1" points="30.22 154.15 73.53 179.16 53.16 214.45 35.21 195.52 9.85 189.44 30.22 154.15"/></clipPath><radialGradient id="radial-gradient" cx="93.84" cy="129.28" r="108.2" gradientTransform="translate(0 81.66) scale(1 0.37)" gradientUnits="userSpaceOnUse"><stop offset="0.34" stop-color="#9d8d8c"/><stop offset="0.42" stop-color="#a19291" stop-opacity="0.96"/><stop offset="0.54" stop-color="#ac9e9d" stop-opacity="0.85"/><stop offset="0.67" stop-color="#beb3b3" stop-opacity="0.66"/><stop offset="0.81" stop-color="#d7d1d0" stop-opacity="0.41"/><stop offset="0.97" stop-color="#f7f6f6" stop-opacity="0.08"/><stop offset="1" stop-color="#fff" stop-opacity="0"/></radialGradient><radialGradient id="radial-gradient-2" cx="86.48" cy="105.08" r="71.21" gradientUnits="userSpaceOnUse"><stop offset="0.61" stop-color="#fff"/><stop offset="0.97" stop-color="#d7d5e2"/><stop offset="1" stop-color="#d4d1e0"/></radialGradient><linearGradient id="linear-gradient" x1="86.48" y1="52.56" x2="86.48" y2="63.38" gradientUnits="userSpaceOnUse"><stop offset="0" stop-color="#f67f0b"/><stop offset="1" stop-color="#ffba00"/></linearGradient><linearGradient id="linear-gradient-2" x1="97.48" y1="62.84" x2="66.84" y2="15.8" gradientUnits="userSpaceOnUse"><stop offset="0" stop-color="#fd960b"/><stop offset="1" stop-color="#fddd3b"/></linearGradient><linearGradient id="linear-gradient-3" x1="86.48" y1="91.66" x2="86.48" y2="99.02" xlink:href="#linear-gradient"/><linearGradient id="linear-gradient-4" x1="93.97" y1="98.66" x2="73.11" y2="66.65" xlink:href="#linear-gradient-2"/><linearGradient id="linear-gradient-5" x1="86.48" y1="167.04" x2="86.48" y2="170.78" xlink:href="#linear-gradient"/><linearGradient id="linear-gradient-6" x1="90.28" y1="170.6" x2="79.7" y2="154.35" xlink:href="#linear-gradient-2"/><linearGradient id="linear-gradient-7" x1="63.75" y1="162.77" x2="111.54" y2="79.98" xlink:href="#linear-gradient"/></defs><g class="cls-2"><g id="Layer_2" data-name="Layer 2"><g id="Layer_1-2" data-name="Layer 1"><polygon class="cls-1" points="142.75 154.15 99.44 179.16 119.81 214.45 137.76 195.52 163.12 189.44 142.75 154.15"/><g class="cls-3"><rect class="cls-1" x="106.27" y="163.93" width="50.01" height="40.74" transform="matrix(0.87, -0.5, 0.5, 0.87, -74.56, 90.33)"/><rect class="cls-4" x="106.27" y="163.93" width="50.01" height="40.74" transform="matrix(0.87, -0.5, 0.5, 0.87, -74.56, 90.33)"/></g><polygon class="cls-5" points="116.17 208.15 119.81 214.45 137.76 195.52 163.12 189.44 159.49 183.14 134.12 189.23 116.17 208.15"/><polygon class="cls-1" points="30.22 154.15 73.53 179.16 53.16 214.45 35.21 195.52 9.85 189.44 30.22 154.15"/><g class="cls-6"><rect class="cls-1" x="16.68" y="163.93" width="50.01" height="40.74" transform="translate(-14.36 364.75) rotate(-150)"/><rect class="cls-4" x="16.68" y="163.93" width="50.01" height="40.74" transform="translate(-14.36 364.75) rotate(-150)"/></g><polygon class="cls-5" points="56.79 208.15 53.16 214.45 35.21 195.52 9.85 189.44 13.48 183.14 38.84 189.23 56.79 208.15"/><path class="cls-7" d="M173,135.35V74.81a24.23,24.23,0,0,0-12.11-21L98.59,17.89a24.18,24.18,0,0,0-24.21,0l-62.28,36A24.22,24.22,0,0,0,0,74.81v60.54a24.19,24.19,0,0,0,12.1,21l62.28,36a24.23,24.23,0,0,0,24.21,0l62.27-36A24.2,24.2,0,0,0,173,135.35Z"/><path class="cls-8" d="M0,92.69v42.66a24.19,24.19,0,0,0,12.1,21l62.28,36a24.23,24.23,0,0,0,24.21,0l62.27-36a24.2,24.2,0,0,0,12.11-21V92.69Z"/><path class="cls-9" d="M157.46,127.15V83a19.87,19.87,0,0,0-9.94-17.21L96.42,36.3a19.87,19.87,0,0,0-19.87,0L25.44,65.8A19.86,19.86,0,0,0,15.51,83v44.14a19.86,19.86,0,0,0,9.93,17.2l51.11,29.51a19.87,19.87,0,0,0,19.87,0l51.1-29.51A19.87,19.87,0,0,0,157.46,127.15Z"/><path class="cls-10" d="M86.48,39.78a13.74,13.74,0,0,1,6.86,1.84l51.11,29.51A13.75,13.75,0,0,1,151.31,83v44.14A13.76,13.76,0,0,1,144.45,139L93.34,168.54a13.77,13.77,0,0,1-13.72,0L28.51,139a13.76,13.76,0,0,1-6.86-11.88V83a13.75,13.75,0,0,1,6.86-11.88L79.62,41.62a13.8,13.8,0,0,1,6.86-1.84m0-6.14a19.77,19.77,0,0,0-9.93,2.66L25.44,65.8A19.86,19.86,0,0,0,15.51,83v44.14a19.86,19.86,0,0,0,9.93,17.2l51.11,29.51a19.88,19.88,0,0,0,19.87,0l51.1-29.51a19.87,19.87,0,0,0,9.94-17.2V83a19.87,19.87,0,0,0-9.94-17.21L96.42,36.3a19.84,19.84,0,0,0-9.94-2.66Z"/><path class="cls-11" d="M92.52,48.92l8.85,9.87a7.06,7.06,0,0,0,5.23,2.33h18.33c6.2,0,9.36-15.58,5.06-20L92.41,10.29a7,7,0,0,0-10-.12L43.09,41C38.63,45.38,41.76,61.12,48,61.12H67.34A7,7,0,0,0,72.41,59l9.82-10.22A7,7,0,0,1,92.52,48.92Z"/><path class="cls-12" d="M92.52,40.78l8.85,9.87A7.06,7.06,0,0,0,106.6,53h18.33A7,7,0,0,0,130,41.08L92.41,2.15a7,7,0,0,0-10-.12L43.09,41A7,7,0,0,0,48,53H67.34a7,7,0,0,0,5.07-2.16L82.23,40.6A7,7,0,0,1,92.52,40.78Z"/><path class="cls-13" d="M90.59,89.18l6,6.72a4.77,4.77,0,0,0,3.56,1.59h12.47c4.22,0,6.37-10.6,3.44-13.64L90.52,62.9a4.78,4.78,0,0,0-6.81-.08L57,83.77c-3,3-.9,13.72,3.37,13.72H73.46A4.76,4.76,0,0,0,76.9,96l6.69-7A4.78,4.78,0,0,1,90.59,89.18Z"/><path class="cls-14" d="M90.59,83.65l6,6.71A4.77,4.77,0,0,0,100.18,92h12.47a4.78,4.78,0,0,0,3.44-8.1L90.52,57.36a4.79,4.79,0,0,0-6.81-.08L57,83.77A4.78,4.78,0,0,0,60.32,92H73.46a4.76,4.76,0,0,0,3.44-1.47l6.69-7A4.77,4.77,0,0,1,90.59,83.65Z"/><path class="cls-15" d="M88.57,165.79l3.05,3.41a2.44,2.44,0,0,0,1.81.8h6.33c2.14,0,3.23-5.38,1.74-6.92l-13-10.63a2.43,2.43,0,0,0-3.45,0L71.5,163c-1.54,1.53-.46,7,1.71,7h6.66a2.43,2.43,0,0,0,1.75-.74L85,165.73A2.43,2.43,0,0,1,88.57,165.79Z"/><path class="cls-16" d="M88.57,163l3.05,3.41a2.44,2.44,0,0,0,1.81.8h6.33a2.42,2.42,0,0,0,1.74-4.11l-13-13.44a2.43,2.43,0,0,0-3.45,0L71.5,163a2.43,2.43,0,0,0,1.71,4.15h6.66a2.43,2.43,0,0,0,1.75-.74L85,162.92A2.43,2.43,0,0,1,88.57,163Z"/><path class="cls-17" d="M155.11,137.82,18.57,149.69A9.77,9.77,0,0,1,8,139.52l1-21.28A9.79,9.79,0,0,1,17.85,109L154.39,97.08A9.77,9.77,0,0,1,165,107.26l-1,21.28A9.75,9.75,0,0,1,155.11,137.82Z"/><text class="cls-18" transform="matrix(1, -0.09, -0.04, 1, 22.21, 138.44)">LEVEL UP</text></g></g></g></svg>