<svg xmlns="http://www.w3.org/2000/svg" viewBox="0 0 105.58 140.74"><defs><style>.cls-1{fill:#525254;opacity:0.68;}</style></defs><g id="Layer_2" data-name="Layer 2"><g id="Layer_1-2" data-name="Layer 1"><path class="cls-1" d="M95.13,140.74H10.45a24.63,24.63,0,0,1-3.76-1.21C2.1,137.23,0,133.36,0,128.29V57.1c0-3.46.86-4.33,4.27-4.33h7.48c0-3.8,0-7.41,0-11,0-11.22,3.63-21.09,11.52-29.09C34,1.75,47.14-2.17,62.1,1.14a40.79,40.79,0,0,1,31.69,39.1c0,3.67,0,7.33,0,11v1.53c2.86,0,5.51,0,8.16,0,2.43,0,3.58,1.12,3.58,3.5q0,36.21,0,72.42a11,11,0,0,1-4.82,9.67C99.09,139.48,97,140,95.13,140.74Zm-18.93-88c0-4.24,0-8.35,0-12.46a21.57,21.57,0,0,0-4.81-13.46c-5.94-7.38-13.69-10.53-23-8.71S32.82,25.77,30.2,35c-1.63,5.73-.66,11.66-.79,17.5,0,.06.11.13.19.23ZM52.68,117.3c1.74,0,3.48,0,5.22,0,2.74,0,3.91-1.42,3.6-4.1-.58-5-1.14-10-1.65-15a1.72,1.72,0,0,1,.48-1.26,11.67,11.67,0,0,0,4-10.42c-.65-6.66-7.77-11.68-14.26-9.94-4.66,1.25-7.71,4.23-8.74,8.91a11.24,11.24,0,0,0,3.8,11.39,1.86,1.86,0,0,1,.54,1.37c-.51,5.05-1.1,10.1-1.66,15.14-.27,2.46.91,3.85,3.4,3.91C49.2,117.34,50.94,117.3,52.68,117.3Z"/></g></g></svg>